<svg width="15" height="15" viewBox="0 0 15 15" fill="none" xmlns="http://www.w3.org/2000/svg">
<path d="M6.51421 1.18898C7.04315 0.60823 7.95688 0.60823 8.48581 1.18898L9.16595 1.9358C9.43321 2.22932 9.81741 2.38845 10.214 2.36992L11.223 2.32276C12.0076 2.28609 12.6538 2.93224 12.6171 3.71689L12.5699 4.7259C12.5514 5.12245 12.7105 5.50664 13.0041 5.77394L13.7509 6.45406C14.3317 6.983 14.3317 7.89673 13.7509 8.42566L13.0041 9.1058C12.7105 9.37306 12.5514 9.75726 12.5699 10.1539L12.6171 11.1629C12.6538 11.9475 12.0076 12.5937 11.223 12.557L10.214 12.5098C9.81741 12.4913 9.43321 12.6504 9.16595 12.9439L8.48581 13.6907C7.95688 14.2715 7.04315 14.2715 6.51421 13.6907L5.83409 12.9439C5.56679 12.6504 5.1826 12.4913 4.78605 12.5098L3.77703 12.557C2.99239 12.5937 2.34624 11.9475 2.38291 11.1629L2.43007 10.1539C2.4486 9.75726 2.28947 9.37306 1.99595 9.1058L1.24913 8.42566C0.66838 7.89673 0.66838 6.983 1.24913 6.45406L1.99595 5.77394C2.28947 5.50664 2.4486 5.12245 2.43007 4.7259L2.38291 3.71688C2.34624 2.93224 2.99239 2.28609 3.77704 2.32276L4.78605 2.36992C5.1826 2.38845 5.56679 2.22932 5.83409 1.9358L6.51421 1.18898Z" fill="#EDEDED" stroke="#1A1A1A" stroke-width="1.06667"/>
</svg>
